#Comment line ignore any data following # character 
#Hierarchical Translation and Rotation (.htr) file 
[Header]	
#Header keywords are followed by a single value 
FileType HTR		#Single word string
DataType HTRS		#Translation followed by rotation and scale data
FileVersion 1		#integer
NumSegments 84		#integer
NumFrames 2		#integer
DataFrameRate 30		#integer, data frame rate in this file
EulerRotationOrder ZYX
CalibrationUnits mm
RotationUnits Degrees
GlobalAxisofGravity Y
BoneLengthAxis Y
ScaleFactor 1.00
[SegmentNames&Hierarchy]
#CHILD	PARENT
MASTER GLOBAL
root MASTER
chest root
L_mid_tent01 root
R_mid_tent01 root
spine01 root
Bip01_Neck chest
L_humerus chest
R_humerus chest
weapon_bone chest
Bip01_Head Bip01_Neck
eye_left_bone Bip01_Head
eye_right_bone Bip01_Head
L_forearm L_humerus
L_front_hand L_forearm
L_weapon_bone L_forearm
L_front_hand01_01 L_front_hand
L_front_hand02_01 L_front_hand
L_front_hand03_01 L_front_hand
L_front_hand01_02 L_front_hand01_01
L_front_hand02_02 L_front_hand02_01
L_front_hand03_02 L_front_hand03_01
R_forearm R_humerus
R_front_hand R_forearm
R_weapon_bone R_forearm
R_front_hand01_01 R_front_hand
R_front_hand02_01 R_front_hand
R_front_hand03_01 R_front_hand
R_front_hand01_02 R_front_hand01_01
R_front_hand02_02 R_front_hand02_01
R_front_hand03_02 R_front_hand03_01
null_rope01_connect L_mid_tent01
Rope1_Seg01 null_rope01_connect
Rope1_Seg02 Rope1_Seg01
Rope1_Seg03 Rope1_Seg02
Rope1_Seg04 Rope1_Seg03
Rope1_Seg05 Rope1_Seg04
Rope1_Seg06 Rope1_Seg05
Rope1_Seg07 Rope1_Seg06
Rope1_Seg09 Rope1_Seg07
L_mid_hand01 Rope1_Seg09
L_mid_hand02 Rope1_Seg09
L_mid_hand03 Rope1_Seg09
null_rope02_connect R_mid_tent01
Rope2_Seg01 null_rope02_connect
Rope2_Seg02 Rope2_Seg01
Rope2_Seg03 Rope2_Seg02
Rope2_Seg04 Rope2_Seg03
Rope2_Seg05 Rope2_Seg04
Rope2_Seg06 Rope2_Seg05
Rope2_Seg07 Rope2_Seg06
Rope2_Seg09 Rope2_Seg07
R_mid_hand01 Rope2_Seg09
R_mid_hand02 Rope2_Seg09
R_mid_hand03 Rope2_Seg09
spine02 spine01
spine03 spine02
pelvis spine03
null_rope03_connect pelvis
null_rope04_connect pelvis
Rope3_Seg01 null_rope03_connect
Rope3_Seg02 Rope3_Seg01
Rope3_Seg03 Rope3_Seg02
Rope3_Seg04 Rope3_Seg03
Rope3_Seg05 Rope3_Seg04
Rope3_Seg06 Rope3_Seg05
Rope3_Seg07 Rope3_Seg06
Rope3_Seg08 Rope3_Seg07
Rope3_Seg09 Rope3_Seg08
R_rear_hand01 Rope3_Seg09
R_rear_hand02 Rope3_Seg09
R_rear_hand03 Rope3_Seg09
Rope4_Seg01 null_rope04_connect
Rope4_Seg02 Rope4_Seg01
Rope4_Seg03 Rope4_Seg02
Rope4_Seg04 Rope4_Seg03
Rope4_Seg05 Rope4_Seg04
Rope4_Seg06 Rope4_Seg05
Rope4_Seg07 Rope4_Seg06
Rope4_Seg08 Rope4_Seg07
Rope4_Seg09 Rope4_Seg08
L_rear_hand01 Rope4_Seg09
L_rear_hand02 Rope4_Seg09
L_rear_hand03 Rope4_Seg09
[BasePosition]
#SegmentName Tx, Ty, Tz, Rx, Ry, Rz, BoneLength
MASTER 0.000000 0.000000 0.000000 -90.000000 0.000000 0.000000 10.000000 
root 0.000000 0.000000 0.000000 0.000000 0.000000 0.000000 10.000000 
chest 0.000000 0.000000 0.000000 0.000000 0.000000 0.000000 10.000000 
L_mid_tent01 0.000000 0.000000 0.000000 0.000000 0.000000 0.000000 10.000000 
R_mid_tent01 0.000000 0.000000 0.000000 0.000000 0.000000 0.000000 10.000000 
spine01 0.000000 0.000000 0.000000 0.000000 0.000000 0.000000 10.000000 
Bip01_Neck 0.000000 0.000000 0.000000 0.000000 0.000000 0.000000 10.000000 
L_humerus 0.000000 0.000000 0.000000 0.000000 0.000000 0.000000 10.000000 
R_humerus 0.000000 0.000000 0.000000 0.000000 0.000000 0.000000 10.000000 
weapon_bone 0.000000 0.000000 0.000000 0.000000 0.000000 0.000000 10.000000 
Bip01_Head 0.000000 0.000000 0.000000 0.000000 0.000000 0.000000 10.000000 
eye_left_bone 0.000000 0.000000 0.000000 0.000000 0.000000 0.000000 10.000000 
eye_right_bone 0.000000 0.000000 0.000000 0.000000 0.000000 0.000000 10.000000 
L_forearm 0.000000 0.000000 0.000000 0.000000 0.000000 0.000000 10.000000 
L_front_hand 0.000000 0.000000 0.000000 0.000000 0.000000 0.000000 10.000000 
L_weapon_bone 0.000000 0.000000 0.000000 0.000000 0.000000 0.000000 10.000000 
L_front_hand01_01 0.000000 0.000000 0.000000 0.000000 0.000000 0.000000 10.000000 
L_front_hand02_01 0.000000 0.000000 0.000000 0.000000 0.000000 0.000000 10.000000 
L_front_hand03_01 0.000000 0.000000 0.000000 0.000000 0.000000 0.000000 10.000000 
L_front_hand01_02 0.000000 0.000000 0.000000 0.000000 0.000000 0.000000 10.000000 
L_front_hand02_02 0.000000 0.000000 0.000000 0.000000 0.000000 0.000000 10.000000 
L_front_hand03_02 0.000000 0.000000 0.000000 0.000000 0.000000 0.000000 10.000000 
R_forearm 0.000000 0.000000 0.000000 0.000000 0.000000 0.000000 10.000000 
R_front_hand 0.000000 0.000000 0.000000 0.000000 0.000000 0.000000 10.000000 
R_weapon_bone 0.000000 0.000000 0.000000 0.000000 0.000000 0.000000 10.000000 
R_front_hand01_01 0.000000 0.000000 0.000000 0.000000 0.000000 0.000000 10.000000 
R_front_hand02_01 0.000000 0.000000 0.000000 0.000000 0.000000 0.000000 10.000000 
R_front_hand03_01 0.000000 0.000000 0.000000 0.000000 0.000000 0.000000 10.000000 
R_front_hand01_02 0.000000 0.000000 0.000000 0.000000 0.000000 0.000000 10.000000 
R_front_hand02_02 0.000000 0.000000 0.000000 0.000000 0.000000 0.000000 10.000000 
R_front_hand03_02 0.000000 0.000000 0.000000 0.000000 0.000000 0.000000 10.000000 
null_rope01_connect 0.000000 0.000000 0.000000 0.000000 0.000000 0.000000 10.000000 
Rope1_Seg01 0.000000 0.000000 0.000000 0.000000 0.000000 0.000000 10.000000 
Rope1_Seg02 0.000000 0.000000 0.000000 0.000000 0.000000 0.000000 10.000000 
Rope1_Seg03 0.000000 0.000000 0.000000 0.000000 0.000000 0.000000 10.000000 
Rope1_Seg04 0.000000 0.000000 0.000000 0.000000 0.000000 0.000000 10.000000 
Rope1_Seg05 0.000000 0.000000 0.000000 0.000000 0.000000 0.000000 10.000000 
Rope1_Seg06 0.000000 0.000000 0.000000 0.000000 0.000000 0.000000 10.000000 
Rope1_Seg07 0.000000 0.000000 0.000000 0.000000 0.000000 0.000000 10.000000 
Rope1_Seg09 0.000000 0.000000 0.000000 0.000000 0.000000 0.000000 10.000000 
L_mid_hand01 0.000000 0.000000 0.000000 0.000000 0.000000 0.000000 10.000000 
L_mid_hand02 0.000000 0.000000 0.000000 0.000000 0.000000 0.000000 10.000000 
L_mid_hand03 0.000000 0.000000 0.000000 0.000000 0.000000 0.000000 10.000000 
null_rope02_connect 0.000000 0.000000 0.000000 0.000000 0.000000 0.000000 10.000000 
Rope2_Seg01 0.000000 0.000000 0.000000 0.000000 0.000000 0.000000 10.000000 
Rope2_Seg02 0.000000 0.000000 0.000000 0.000000 0.000000 0.000000 10.000000 
Rope2_Seg03 0.000000 0.000000 0.000000 0.000000 0.000000 0.000000 10.000000 
Rope2_Seg04 0.000000 0.000000 0.000000 0.000000 0.000000 0.000000 10.000000 
Rope2_Seg05 0.000000 0.000000 0.000000 0.000000 0.000000 0.000000 10.000000 
Rope2_Seg06 0.000000 0.000000 0.000000 0.000000 0.000000 0.000000 10.000000 
Rope2_Seg07 0.000000 0.000000 0.000000 0.000000 0.000000 0.000000 10.000000 
Rope2_Seg09 0.000000 0.000000 0.000000 0.000000 0.000000 0.000000 10.000000 
R_mid_hand01 0.000000 0.000000 0.000000 0.000000 0.000000 0.000000 10.000000 
R_mid_hand02 0.000000 0.000000 0.000000 0.000000 0.000000 0.000000 10.000000 
R_mid_hand03 0.000000 0.000000 0.000000 0.000000 0.000000 0.000000 10.000000 
spine02 0.000000 0.000000 0.000000 0.000000 0.000000 0.000000 10.000000 
spine03 0.000000 0.000000 0.000000 0.000000 0.000000 0.000000 10.000000 
pelvis 0.000000 0.000000 0.000000 0.000000 0.000000 0.000000 10.000000 
null_rope03_connect 0.000000 0.000000 0.000000 0.000000 0.000000 0.000000 10.000000 
null_rope04_connect 0.000000 0.000000 0.000000 0.000000 0.000000 0.000000 10.000000 
Rope3_Seg01 0.000000 0.000000 0.000000 0.000000 0.000000 0.000000 10.000000 
Rope3_Seg02 0.000000 0.000000 0.000000 0.000000 0.000000 0.000000 10.000000 
Rope3_Seg03 0.000000 0.000000 0.000000 0.000000 0.000000 0.000000 10.000000 
Rope3_Seg04 0.000000 0.000000 0.000000 0.000000 0.000000 0.000000 10.000000 
Rope3_Seg05 0.000000 0.000000 0.000000 0.000000 0.000000 0.000000 10.000000 
Rope3_Seg06 0.000000 0.000000 0.000000 0.000000 0.000000 0.000000 10.000000 
Rope3_Seg07 0.000000 0.000000 0.000000 0.000000 0.000000 0.000000 10.000000 
Rope3_Seg08 0.000000 0.000000 0.000000 0.000000 0.000000 0.000000 10.000000 
Rope3_Seg09 0.000000 0.000000 0.000000 0.000000 0.000000 0.000000 10.000000 
R_rear_hand01 0.000000 0.000000 0.000000 0.000000 0.000000 0.000000 10.000000 
R_rear_hand02 0.000000 0.000000 0.000000 0.000000 0.000000 0.000000 10.000000 
R_rear_hand03 0.000000 0.000000 0.000000 0.000000 0.000000 0.000000 10.000000 
Rope4_Seg01 0.000000 0.000000 0.000000 0.000000 0.000000 0.000000 10.000000 
Rope4_Seg02 0.000000 0.000000 0.000000 0.000000 0.000000 0.000000 10.000000 
Rope4_Seg03 0.000000 0.000000 0.000000 0.000000 0.000000 0.000000 10.000000 
Rope4_Seg04 0.000000 0.000000 0.000000 0.000000 0.000000 0.000000 10.000000 
Rope4_Seg05 0.000000 0.000000 0.000000 0.000000 0.000000 0.000000 10.000000 
Rope4_Seg06 0.000000 0.000000 0.000000 0.000000 0.000000 0.000000 10.000000 
Rope4_Seg07 0.000000 0.000000 0.000000 0.000000 0.000000 0.000000 10.000000 
Rope4_Seg08 0.000000 0.000000 0.000000 0.000000 0.000000 0.000000 10.000000 
Rope4_Seg09 0.000000 0.000000 0.000000 0.000000 0.000000 0.000000 10.000000 
L_rear_hand01 0.000000 0.000000 0.000000 0.000000 0.000000 0.000000 10.000000 
L_rear_hand02 0.000000 0.000000 0.000000 0.000000 0.000000 0.000000 10.000000 
L_rear_hand03 0.000000 0.000000 0.000000 0.000000 0.000000 0.000000 10.000000 
#Beginning of Data. Separated by tabs
#Fr	Tx	Ty	Tz	Rx	Ry	Rz	SF
[MASTER]
19 1373.887329 3720.114014 -1568.822510 0.001660 0.001660 0.001660 4264.741211
20 1354.123779 3836.868408 -1548.553467 0.001660 0.001660 0.001660 4353.530762
[root]
19 -16.500244 3.374069 1453.694702 -90.145660 -14.173009 -89.583931 1453.792236
20 -16.499939 9.360352 1448.320068 -90.141396 -12.631009 -89.540520 1448.444214
[chest]
19 -84.512650 -34.090519 0.000000 -4.519219 0.496937 168.978699 91.129311
20 -84.512650 -34.090519 0.000000 -2.170494 -0.006436 168.239609 91.129311
[L_mid_tent01]
19 27.298895 22.179115 -249.918823 -19.120171 17.992338 22.247761 252.381775
20 27.298887 22.179106 -249.918823 -20.661398 12.026046 12.983024 252.381760
[R_mid_tent01]
19 23.228794 24.509907 226.238495 -168.568558 -21.479515 30.636824 228.744751
20 23.228794 24.509907 226.238495 -165.247086 -18.066835 24.468353 228.744751
[spine01]
19 -0.361383 -0.195265 0.000000 -0.000001 -0.000007 22.052340 0.410763
20 -0.361383 -0.195265 0.000000 -0.000001 -0.000007 22.052340 0.410763
[Bip01_Neck]
19 165.484543 71.581718 0.000119 176.643677 -1.657967 43.431911 180.302734
20 165.484543 71.581718 0.000119 176.643677 -1.657967 43.431919 180.302734
[L_humerus]
19 -13.983130 -135.272980 -120.471481 0.770196 77.818405 91.189842 181.680161
20 -13.983130 -135.272980 -120.471481 -5.480137 68.873428 84.573517 181.680161
[R_humerus]
19 -13.983309 -135.273102 125.287651 38.809418 -79.127060 56.673744 184.909012
20 -13.983309 -135.273102 125.287651 27.897175 -69.888847 67.752357 184.909012
[weapon_bone]
19 235.964890 -300.705902 0.000000 0.000000 -89.951546 -128.212341 382.234833
20 235.964890 -300.705902 0.000000 0.000000 -89.951546 -128.212341 382.234833
[Bip01_Head]
19 213.443802 185.716370 11.765060 5.699833 2.983589 -43.897892 283.173523
20 213.444199 185.715485 11.776886 4.962491 2.797846 -43.898750 283.173737
[eye_left_bone]
19 -24.626970 125.451866 -64.772606 0.000000 -90.000000 -99.840431 143.318359
20 -24.626970 125.451866 -64.772606 0.000000 -90.000000 -99.840431 143.318359
[eye_right_bone]
19 -24.626970 125.451866 64.327362 0.000000 -89.965736 80.156380 143.117676
20 -24.626970 125.451866 64.327362 0.000000 -90.000000 80.156387 143.117676
[L_forearm]
19 322.776093 0.000000 -0.000119 0.000390 -0.002315 -109.141006 322.776093
20 322.776093 0.000000 -0.000119 0.000396 -0.002314 -109.419975 322.776093
[L_front_hand]
19 241.149185 -0.042021 -3.300071 -105.490540 -1.835781 -27.423635 241.171753
20 241.149185 -0.042021 -3.300071 -105.490540 -1.835781 -27.423641 241.171753
[L_weapon_bone]
19 156.183838 0.000000 0.000000 0.000014 0.000007 0.000001 156.183838
20 156.183838 0.000000 0.000000 0.000014 0.000007 0.000001 156.183838
[L_front_hand01_01]
19 86.095154 20.947098 -0.655860 -0.366594 -0.477154 75.385574 88.609184
20 86.095154 20.947098 -0.655860 -0.366594 -0.477154 75.385582 88.609184
[L_front_hand02_01]
19 86.935165 -11.437475 24.513514 154.399796 -59.883835 -61.369587 91.046425
20 86.935165 -11.437475 24.513514 154.399826 -59.883846 -61.369614 91.046425
[L_front_hand03_01]
19 86.637497 -14.123976 -20.424902 -153.913849 58.118122 -62.702866 90.126129
20 86.637497 -14.123976 -20.424902 -153.913864 58.118141 -62.702885 90.126129
[L_front_hand01_02]
19 71.020905 -0.000179 0.000030 0.000334 -0.002323 -106.379684 71.020905
20 71.020905 -0.000179 0.000030 0.000334 -0.002323 -106.379700 71.020905
[L_front_hand02_02]
19 71.020927 -0.000119 0.000060 0.000334 -0.002323 -106.379684 71.020927
20 71.020927 -0.000119 0.000060 0.000334 -0.002323 -106.379700 71.020927
[L_front_hand03_02]
19 71.020905 -0.000060 0.000060 0.000334 -0.002323 -106.379684 71.020905
20 71.020905 -0.000060 0.000060 0.000334 -0.002323 -106.379700 71.020905
[R_forearm]
19 322.776428 -0.000060 0.000030 0.204262 0.063198 -107.778152 322.776428
20 322.776428 -0.000060 0.000030 0.202103 0.065158 -108.062820 322.776428
[R_front_hand]
19 238.847015 -0.006795 2.210259 -2.635298 -10.645461 -26.312506 238.857239
20 238.847015 -0.006795 2.210259 -2.635299 -10.645463 -26.312508 238.857239
[R_weapon_bone]
19 155.664093 0.002503 -0.000030 0.003487 0.001180 -90.988930 155.664078
20 155.664093 0.002503 -0.000030 0.003487 0.001180 -90.988930 155.664078
[R_front_hand01_01]
19 87.624611 14.231146 22.918642 -154.633484 -59.950619 61.746037 91.683487
20 87.624611 14.231146 22.918642 -154.633499 -59.950634 61.746063 91.683487
[R_front_hand02_01]
19 89.356956 14.367283 -19.491137 154.602661 58.302849 63.744389 92.579636
20 89.356956 14.367283 -19.491137 154.602676 58.302864 63.744400 92.579636
[R_front_hand03_01]
19 87.286232 -22.307278 -0.143439 0.162155 -0.423168 -75.767921 90.091743
20 87.286232 -22.307278 -0.143439 0.162155 -0.423168 -75.767921 90.091743
[R_front_hand01_02]
19 71.020905 0.000060 0.000119 0.002323 -0.000334 106.381714 71.020905
20 71.020905 0.000060 0.000119 0.002323 -0.000334 106.381729 71.020905
[R_front_hand02_02]
19 71.020844 -0.000030 -0.000119 0.002323 -0.000334 106.381714 71.020836
20 71.020844 -0.000030 -0.000119 0.002323 -0.000334 106.381729 71.020836
[R_front_hand03_02]
19 71.020905 0.000000 0.000030 0.002323 -0.000334 106.381714 71.020905
20 71.020905 0.000000 0.000030 0.002323 -0.000334 106.381729 71.020905
[null_rope01_connect]
19 328.732483 0.000000 -0.000238 -147.174866 -64.073547 -133.862564 328.732483
20 328.732483 0.000000 -0.000238 -152.438049 -66.305428 -120.017570 328.732483
[Rope1_Seg01]
19 -0.000037 -0.000291 0.000000 47.106201 -6.757928 -120.457626 0.000293
20 -0.000038 -0.000305 0.000000 40.228806 -2.943133 -123.332344 0.000308
[Rope1_Seg02]
19 139.999863 -0.000179 0.000000 20.326372 7.332765 3.301631 139.999863
20 139.999863 -0.000179 0.000000 13.974494 5.221909 3.096280 139.999863
[Rope1_Seg03]
19 139.999924 0.000060 -0.000060 10.953299 7.851195 -0.449554 139.999924
20 139.999924 0.000060 -0.000060 11.575107 6.437795 1.526163 139.999924
[Rope1_Seg04]
19 139.999924 -0.000060 -0.000119 9.869717 8.904587 -0.268559 139.999924
20 139.999924 -0.000060 -0.000119 9.591152 7.941621 0.146619 139.999924
[Rope1_Seg05]
19 139.999832 0.000119 -0.000060 6.800493 5.053755 1.730427 139.999832
20 139.999832 0.000119 -0.000060 8.137897 5.301375 2.424111 139.999832
[Rope1_Seg06]
19 139.999954 0.000119 -0.000060 2.406296 2.246894 0.271510 139.999954
20 139.999954 0.000119 -0.000060 3.644673 2.366562 1.264806 139.999954
[Rope1_Seg07]
19 139.999985 0.000060 0.000000 1.277795 1.366762 0.002067 139.999985
20 139.999985 0.000060 0.000000 1.900705 1.588980 0.329781 139.999985
[Rope1_Seg09]
19 121.602913 0.000119 -0.000089 -89.793175 -1.359789 0.847147 121.602913
20 121.602913 0.000119 -0.000089 -89.793175 -1.359789 0.847147 121.602913
[L_mid_hand01]
19 103.859421 1.038730 8.195221 130.544373 -67.584534 -38.866943 104.187431
20 103.859421 1.038730 8.195221 130.544373 -67.584534 -38.866943 104.187431
[L_mid_hand02]
19 105.572853 -4.139662 -10.864139 -168.923172 43.409309 -73.498886 106.211075
20 105.572853 -4.139662 -10.864139 -168.923172 43.409321 -73.498909 106.211075
[L_mid_hand03]
19 104.641464 17.579376 -3.913581 -6.012627 17.808174 74.893669 106.179977
20 104.641464 17.579376 -3.913581 -6.012628 17.808178 74.893677 106.179977
[null_rope02_connect]
19 328.732849 0.000179 -0.000119 -134.555634 65.620903 -25.838255 328.732849
20 328.732849 0.000179 -0.000119 -141.177490 66.677513 -36.901920 328.732849
[Rope2_Seg01]
19 0.000000 -0.000279 -0.000004 -10.483793 1.627797 -57.359875 0.000279
20 0.000000 -0.000305 0.000000 0.312238 7.731820 -54.589912 0.000305
[Rope2_Seg02]
19 139.999741 -0.000060 -0.000119 -7.067637 -2.369246 -2.434399 139.999756
20 139.999741 -0.000060 -0.000119 -12.581763 -6.114635 -4.108351 139.999756
[Rope2_Seg03]
19 140.000107 0.000030 0.000000 3.266944 -2.335355 2.464061 140.000107
20 140.000107 0.000030 0.000000 1.470899 -5.184154 2.990297 140.000107
[Rope2_Seg04]
19 139.999802 0.000000 -0.000060 -11.325934 0.015167 -5.379316 139.999802
20 139.999802 0.000000 -0.000060 -17.864210 0.459518 -9.146685 139.999802
[Rope2_Seg05]
19 139.999985 -0.000060 0.000119 -12.812049 3.495894 -9.657119 139.999985
20 139.999985 -0.000060 0.000119 -13.662894 8.808857 -14.680749 139.999985
[Rope2_Seg06]
19 139.999893 -0.000030 -0.000119 -4.190805 2.695407 -4.350326 139.999893
20 139.999893 -0.000030 -0.000119 -3.480908 5.644258 -6.152139 139.999893
[Rope2_Seg07]
19 139.999893 0.000060 -0.000060 -1.940966 1.624732 -2.321384 139.999893
20 139.999893 0.000060 -0.000060 -1.461151 3.226309 -3.256145 139.999893
[Rope2_Seg09]
19 121.338966 0.000089 -0.000060 33.793236 -1.359788 -0.847141 121.338966
20 121.338966 0.000089 -0.000060 33.793236 -1.359788 -0.847141 121.338966
[R_mid_hand01]
19 104.680779 11.144459 -10.335981 -16.212063 45.237247 70.462852 105.778534
20 104.680779 11.144459 -10.335981 -16.212065 45.237255 70.462868 105.778534
[R_mid_hand02]
19 104.070427 2.443552 8.231699 49.067368 -67.749771 39.286453 104.424065
20 104.070427 2.443552 8.231699 49.067390 -67.749802 39.286472 104.424065
[R_mid_hand03]
19 106.028137 -11.221827 -5.996406 -177.101105 15.551026 -76.585571 106.788818
20 106.028137 -11.221827 -5.996406 -177.101105 15.551029 -76.585594 106.788818
[spine02]
19 129.756927 0.001550 0.000119 0.331025 -4.047657 -12.510715 129.756927
20 129.756927 0.001550 0.000119 0.360061 -4.044798 -12.915060 129.756927
[spine03]
19 78.614189 0.081626 -4.899134 1.879022 3.841708 16.222666 78.766739
20 78.614197 0.081663 -4.899139 1.896495 3.831288 16.473051 78.766747
[pelvis]
19 169.435242 0.051022 0.000000 -0.059673 -0.180489 13.584753 169.435257
20 169.435242 0.051022 0.000000 -0.060465 -0.180225 14.087932 169.435257
[null_rope03_connect]
19 -1.257226 -2.466202 137.391083 27.202175 -88.921890 37.629570 137.418976
20 -1.257226 -2.466202 137.391083 27.703123 -88.882675 35.238270 137.418976
[null_rope04_connect]
19 -1.259640 -2.480268 -137.844437 27.202175 -88.921890 37.629570 137.872513
20 -1.259640 -2.480268 -137.844437 27.703123 -88.882675 35.238270 137.872513
[Rope3_Seg01]
19 0.000000 0.000000 0.000000 19.033739 28.351650 -77.324974 0.000000
20 0.000000 0.000000 0.000000 20.396696 31.138969 -75.330940 0.000000
[Rope3_Seg02]
19 139.999924 -0.000119 0.000060 -0.159668 -1.912166 0.182382 139.999924
20 139.999924 -0.000119 0.000060 -0.147388 -2.502596 -1.103239 139.999924
[Rope3_Seg03]
19 139.999924 -0.000119 0.000119 -0.165441 -2.184186 0.202668 139.999924
20 139.999924 -0.000119 0.000119 -0.108260 -2.942775 -1.306624 139.999924
[Rope3_Seg04]
19 139.999924 0.000119 0.000000 -0.184722 -2.323115 -0.078714 139.999924
20 139.999924 0.000119 0.000000 0.004634 -4.273747 -2.998027 139.999924
[Rope3_Seg05]
19 139.999924 -0.000238 0.000060 -0.087041 -3.262587 0.508791 139.999924
20 139.999924 -0.000238 0.000060 0.226348 -3.938900 -1.065144 139.999924
[Rope3_Seg06]
19 139.999893 -0.000119 -0.000060 0.202967 -3.220874 1.287335 139.999893
20 139.999893 -0.000119 -0.000060 0.449344 -0.700526 3.664387 139.999893
[Rope3_Seg07]
19 139.999771 0.000060 -0.000119 0.388681 -2.415085 0.883916 139.999771
20 139.999771 0.000060 -0.000119 0.465931 -0.769570 2.318286 139.999771
[Rope3_Seg08]
19 139.999985 -0.000060 0.000000 0.473128 -1.662545 0.573516 139.999985
20 139.999985 -0.000060 0.000000 0.483100 -0.730853 1.289468 139.999985
[Rope3_Seg09]
19 90.185997 -0.000179 -0.000060 89.793228 -1.359877 -0.847183 90.185997
20 90.185997 -0.000179 -0.000060 89.793228 -1.359877 -0.847183 90.185997
[R_rear_hand01]
19 103.366196 -6.073594 -10.757982 172.856537 -15.220671 -75.434441 104.101845
20 103.366196 -6.073594 -10.757982 172.856537 -15.220671 -75.434441 104.101845
[R_rear_hand02]
19 100.509819 12.039542 -7.992327 -12.874829 36.868488 72.167213 101.543350
20 100.509819 12.039542 -7.992327 -12.874833 36.868492 72.167229 101.543350
[R_rear_hand03]
19 101.539970 5.215704 5.435467 71.484581 -71.816628 21.513813 101.819031
20 101.539970 5.215704 5.435467 71.484634 -71.816643 21.513817 101.819031
[Rope4_Seg01]
19 -0.000149 -0.000002 -0.000067 -100.803246 16.245693 -108.499077 0.000163
20 -0.000153 0.000000 -0.000067 -101.914978 18.959480 -110.706055 0.000167
[Rope4_Seg02]
19 139.999985 0.000060 0.000119 -0.430028 -9.131504 0.373381 139.999985
20 139.999985 0.000060 0.000119 -0.521039 -8.582154 0.025883 139.999985
[Rope4_Seg03]
19 139.999924 0.000000 -0.000238 0.418084 -12.724652 -0.119594 139.999924
20 139.999924 0.000000 -0.000238 0.161164 -12.077641 -0.567416 139.999924
[Rope4_Seg04]
19 139.999985 0.000000 0.000119 2.754870 -19.236681 -1.177777 139.999985
20 139.999985 0.000000 0.000119 2.591131 -21.164351 -2.626441 139.999985
[Rope4_Seg05]
19 139.999802 -0.000060 -0.000119 -0.029191 11.626934 3.896918 139.999802
20 139.999802 -0.000060 -0.000119 0.403704 12.075590 4.974434 139.999802
[Rope4_Seg06]
19 139.999924 0.000000 0.000060 0.608238 20.665907 4.759085 139.999924
20 139.999924 0.000000 0.000060 1.408844 23.237261 6.737960 139.999924
[Rope4_Seg07]
19 139.999802 0.000000 0.000000 0.489743 7.625884 2.116239 139.999802
20 139.999802 0.000000 0.000000 0.586059 8.033885 2.601328 139.999802
[Rope4_Seg08]
19 139.999924 0.000000 0.000119 -1.199900 4.392632 1.193064 139.999924
20 139.999924 0.000000 0.000119 -1.176955 4.419311 1.396628 139.999924
[Rope4_Seg09]
19 90.185791 0.000060 0.000060 -135.617828 2.228885 0.850567 90.185791
20 90.185791 0.000060 0.000060 -135.617828 2.228885 0.850567 90.185791
[L_rear_hand01]
19 101.696655 -8.392275 -7.654577 -12.874829 -36.868488 107.832764 102.329041
20 101.696655 -8.392275 -7.654577 -12.874833 -36.868492 107.832779 102.329041
[L_rear_hand02]
19 102.726799 -1.568258 5.773216 71.484581 71.816628 158.486160 102.900848
20 102.726799 -1.568258 5.773216 71.484634 71.816643 158.486176 102.900848
[L_rear_hand03]
19 104.552910 9.721220 -10.420293 -177.714203 -24.565960 -106.089035 105.519653
20 104.552910 9.721220 -10.420293 -177.714203 -24.565968 -106.089043 105.519653
